{"title":"Robot.Chicken.S08E09.1080p.WEB-DL.DD5.1.H.264-RARBG","uid":13197431,"size":397996369,"categoryP":"video","categoryS":"hd___tv_shows","magnet":"?xt=urn:btih:a9aeb032bc01ab6f747e656090b91379b598f14a&amp;dn=Robot.Chicken.S08E09.1080p.WEB-DL.DD5.1.H.264-RARBG&amp;tr=udp%3A%2F%2Ftracker.leechers-paradise.org%3A6969&amp;tr=udp%3A%2F%2Fzer0day.ch%3A1337&amp;tr=udp%3A%2F%2Fopen.demonii.com%3A1337&amp;tr=udp%3A%2F%2Ftracker.coppersurfer.tk%3A6969&amp;tr=udp%3A%2F%2Fexodus.desync.com%3A6969","seeders":3,"leechers":0,"uploader":"frostyon420","files":3,"time":1452508177,"description":"Video\r\nID                          : 1\r\nFormat                      : AVC\r\nFormat/Info                 : Advanced Video Codec\r\nFormat profile              :   \r\nFormat settings, CABAC      : Yes\r\nFormat settings, ReFrames   : 5 frames\r\nCodec ID                    : V_MPEG4/ISO/AVC\r\nDuration                    : 11mn 18s\r\nBit rate                    : 4 217 Kbps\r\nWidth                       : 1 440 pixels\r\nHeight                      : 1 080 pixels\r\nDisplay aspect ratio        : 16:9\r\nFrame rate mode             : Constant\r\nFrame rate                  : 29.970 fps\r\nColor space                 : YUV\r\nChroma subsampling          : 4:2:0\r\nBit depth                   : 8 bits\r\nScan type                   : Progressive\r\nBits/(Pixel*Frame)          : 0.090\r\nStream size                 : 341 MiB (90%)\r\nTitle                       : Robot.Chicken.S08E09.Blackout.Window.Heat.Stroke.1080p.WEB-DL.DD5.1.H.264-RARBG\r\nLanguage                    : English\r\nDefault                     : Yes\r\nForced                      : No\r\nColor primaries             : BT.709\r\nTransfer characteristics    : BT.709\r\nMatrix coefficients         : BT.709\r\nColor range                 : Limited\r\n\r\nAudio\r\nID                          : 2\r\nFormat                      : AC-3\r\nFormat/Info                 : Audio Coding 3\r\nMode extension              : CM (complete main)\r\nFormat settings, Endianness : Big\r\nCodec ID                    : A_AC3\r\nDuration                    : 11mn 18s\r\nBit rate mode               : Constant\r\nBit rate                    : 384 Kbps\r\nChannel(s)                  : 6 channels\r\nChannel positions           : Front: L C R, Side: L R, LFE\r\nSampling rate               : 48.0 KHz\r\nBit depth                   : 16 bits\r\nCompression mode            : Lossy\r\nStream size                 : 31.0 MiB (8%)\r\nTitle                       : Robot.Chicken.S08E09.Blackout.Window.Heat.Stroke.1080p.WEB-DL.DD5.1.H.264-RARBG\r\nLanguage                    : English\r\nDefault                     : Yes\r\nForced                      : No\r\n\r\nText\r\nID                          : 3\r\nFormat                      : UTF-8\r\nCodec ID                    : S_TEXT/UTF8\r\nCodec ID/Info               : UTF-8 Plain Text\r\nTitle                       : English\r\nLanguage                    : English\r\nDefault                     : No\r\nForced                      : No","torrent":{"xt":"urn:btih:a9aeb032bc01ab6f747e656090b91379b598f14a","amp;dn":"Robot.Chicken.S08E09.1080p.WEB-DL.DD5.1.H.264-RARBG","amp;tr":["udp%3A%2F%2Ftracker.leechers-paradise.org%3A6969","udp%3A%2F%2Fzer0day.ch%3A1337","udp%3A%2F%2Fopen.demonii.com%3A1337","udp%3A%2F%2Ftracker.coppersurfer.tk%3A6969","udp%3A%2F%2Fexodus.desync.com%3A6969"],"infoHash":"a9aeb032bc01ab6f747e656090b91379b598f14a","infoHashBuffer":{"type":"Buffer","data":[169,174,176,50,188,1,171,111,116,126,101,96,144,185,19,121,181,152,241,74]},"announce":[],"urlList":[]}}